# ProBuilder 5.0.6
# https://unity3d.com/unity/features/worldbuilding/probuilder
# 7/12/2022 6:59:52 AM

mtllib ./Face.mtl
o Face

g Face
v 3.950891 0 2.950892
v 3.940332 0 3.950892
v 3.940332 0.5063236 3.950892
v 3.950891 0.5063236 2.950892
v 0 0 1.985652
v 0 0.5063236 1.985652
v 1.710404E-09 -0.001353979 1.985653
v 3.940333 -0.001353979 3.950893
v 3.950891 -0.001353979 2.950893
v 0 0 1.975446
v 0 0.5063236 1.975446
v 0 0 1.971792
v 0 0.5063236 1.971792
v 3.362643E-09 -0.001353979 1.971793
v 2.927038E-09 -0.001353979 1.975447
v 3.925305 0 0
v 3.925305 0.5063236 0
v 3.950891 0 1
v 3.950891 0.5063236 1
v 3.950891 -0.001353979 1
v 3.925306 -0.001353979 -8.904351E-09
v 2.450872 0 1.975446
v 2.450872 0.5063236 1.975446
v 2.450873 -0.001353979 1.975447

vt 0 0

vn 0.9999442 0 0.01055778
vn -0.4463184 0 0.8948742
vn 0.4463184 -8.405124E-07 -0.8948742
vn -0.9999443 -1.660953E-06 -0.01055766
vn -1 0 0
vn 1 6.194619E-09 5.960464E-08
vn -0.4488773 0 -0.8935934
vn 0.9996728 0 -0.02557728
vn -0.9996729 -1.637372E-06 0.02557716
vn 0.4488774 8.432179E-07 0.8935934
vn 0.545159 0 0.8383327
vn 0.545159 0 -0.8383327
vn -0.545159 4.13046E-07 0.8383327
vn -0.545159 -1.230606E-06 -0.8383327

usemtl ProBuilderDefault
f 4/1/1 3/1/1 2/1/1 1/1/1
f 3/1/2 6/1/2 5/1/2 2/1/2
f 8/1/3 7/1/3 6/1/3 3/1/3
f 9/1/4 8/1/4 3/1/4 4/1/4
f 6/1/5 11/1/5 10/1/5 5/1/5
f 11/1/5 13/1/5 12/1/5 10/1/5
f 15/1/6 14/1/6 13/1/6 11/1/6
f 7/1/6 15/1/6 11/1/6 6/1/6
f 12/1/7 13/1/7 17/1/7 16/1/7
f 16/1/8 17/1/8 19/1/8 18/1/8
f 17/1/9 21/1/9 20/1/9 19/1/9
f 13/1/10 14/1/10 21/1/10 17/1/10
f 22/1/11 18/1/11 19/1/11 23/1/11
f 1/1/12 22/1/12 23/1/12 4/1/12
f 4/1/13 23/1/13 24/1/13 9/1/13
f 23/1/14 19/1/14 20/1/14 24/1/14

