# ProBuilder 5.0.6
# https://unity3d.com/unity/features/worldbuilding/probuilder
# 7/12/2022 7:30:51 AM

mtllib ./TrueArrow.mtl
o TrueArrow

g Arrow
v 3.950891 0 2.950892
v 3.940332 0 3.950892
v 3.940332 0.5063236 3.950892
v 3.950891 0.5063236 2.950892
v 5.717097E-10 0 1.973927
v 4.047393E-10 1.012647 1.972775
v 3.940332 1.012647 3.950892
v 3.950891 1.012647 2.950892
v 3.925305 0 0
v 3.925305 0.5063236 0
v 3.950891 0 1
v 3.950891 0.5063236 1
v 3.950891 1.012647 1
v 3.925305 1.012647 0
v 2.450872 0 1.975446
v 2.450872 0.5063236 1.975446
v 2.450872 1.012647 1.975446
v 1.975445 1.012647 1.975446
v 1.975445 0 1.975446

vt 1.837067 -0.002194758
vt 1.307458 -0.0026016
vt 1.307458 0.5037219
vt 1.837067 0.5041288
vt -1.027616 -0.0008082798
vt -1.027016 1.011839
vt 1.307458 1.010045
vt 1.837067 1.010452
vt -1.014351 -0.0008026489
vt -3.367383 0.0009561064
vt -3.367383 0.5072796
vt -1.013759 1.011845
vt -3.903207 0.0005557129
vt -3.903207 0.5068792
vt -3.903207 1.013203
vt -3.367383 1.013603
vt -1 -6.712336E-10
vt -1.975446 -4.163891E-10
vt -1.975446 0.5063236
vt -1 0.5063236
vt -2.950892 -6.712336E-10
vt -2.950892 0.5063236
vt -2.950892 1.012647
vt -1.975446 1.012647
vt -1 1.012647
vt -3.950891 2.950892
vt -3.940332 3.950892
vt -4.047393E-10 1.972775
vt -3.925305 0
vt -1.975445 1.975446
vt -3.950891 1
vt -2.450872 1.975446
vt 3.922185 1.000131
vt 3.896785 0.0001307032
vt 1.961092 1.975512
vt 2.433065 1.975528
vt 5.675558E-10 1.973926
vt -0.1218484 1.973054
vt 3.911703 3.951023
vt 3.922185 2.951024

vn 0.9999442 0 0.01055778
vn -0.4485513 0.0005080002 0.8937569
vn -0.4484469 0.001016 0.893809
vn -0.4485861 0.0003386668 0.8937395
vn -0.449265 -0.001015533 -0.893398
vn -0.4491605 -0.0005077667 -0.8934508
vn -0.4490561 0 -0.8935036
vn -0.4491257 -0.0003385112 -0.8934684
vn 0.9996728 0 -0.02557728
vn 0.545159 0 0.8383327
vn 0.545159 0 -0.8383327
vn 0 1 0
vn 0 -1 0
vn -0.06942468 -0.8014771 0.2355926
vn 0.1492259 -0.3332931 0.0353967
vn 0.01063294 -0.2699596 0.1732488
vn 0.01088937 -0.6036718 -0.1600842

usemtl ProBuilderDefault
f 18/30/12 14/29/12 6/28/12
f 17/32/12 13/31/12 14/29/12
f 17/32/12 14/29/12 18/30/12
f 8/26/12 17/32/12 18/30/12
f 8/26/12 18/30/12 7/27/12
f 7/27/12 18/30/12 6/28/12
f 11/17/10 12/20/10 16/19/10
f 15/18/10 11/17/10 16/19/10
f 12/20/10 13/25/10 17/24/10
f 16/19/10 12/20/10 17/24/10
f 15/18/11 16/19/11 4/22/11
f 1/21/11 15/18/11 4/22/11
f 16/19/11 17/24/11 8/23/11
f 4/22/11 16/19/11 8/23/11
f 12/14/9 11/13/9 10/11/9
f 11/13/9 9/10/9 10/11/9
f 13/15/9 12/14/9 14/16/9
f 12/14/9 10/11/9 14/16/9
f 3/3/1 2/2/1 1/1/1
f 3/3/1 1/1/1 4/4/1
f 7/7/1 3/3/1 4/4/1
f 7/7/1 4/4/1 8/8/1
f 6/6/4 5/5/3 2/2/2
f 6/6/4 2/2/2 3/3/4
f 6/6/4 3/3/4 7/7/4
f 10/11/7 9/10/6 6/12/8
f 9/10/6 5/9/5 6/12/8
f 14/16/7 10/11/7 6/12/8
f 19/35/14 9/34/13 15/36/13
f 9/34/13 11/33/13 15/36/13
f 6/38/16 5/37/15 19/35/14
f 5/37/15 9/34/13 19/35/14
f 2/39/17 19/35/14 1/40/13
f 19/35/14 15/36/13 1/40/13
f 5/37/15 6/38/16 2/39/17
f 6/38/16 19/35/14 2/39/17

